<?xml version="1.0" encoding="utf-8" standalone="no"?>
<!DOCTYPE svg PUBLIC "-//W3C//DTD SVG 1.1//EN"
  "http://www.w3.org/Graphics/SVG/1.1/DTD/svg11.dtd">
<svg xmlns:xlink="http://www.w3.org/1999/xlink" width="115pt" height="14pt" viewBox="0 0 115 14" xmlns="http://www.w3.org/2000/svg" version="1.1">
 <metadata>
  <rdf:RDF xmlns:dc="http://purl.org/dc/elements/1.1/" xmlns:cc="http://creativecommons.org/ns#" xmlns:rdf="http://www.w3.org/1999/02/22-rdf-syntax-ns#">
   <cc:Work>
    <dc:type rdf:resource="http://purl.org/dc/dcmitype/StillImage"/>
    <dc:date>2026-09-13T06:07:30.612699</dc:date>
    <dc:format>image/svg+xml</dc:format>
    <dc:creator>
     <cc:Agent>
      <dc:title>Matplotlib v3.10.8, https://matplotlib.org/</dc:title>
     </cc:Agent>
    </dc:creator>
   </cc:Work>
  </rdf:RDF>
 </metadata>
 <defs>
  <style type="text/css">*{stroke-linejoin: round; stroke-linecap: butt}</style>
 </defs>
 <g id="figure_1">
  <g id="patch_1">
   <path d="M 0 14 
L 115 14 
L 115 0 
L 0 0 
z
" style="fill: #ffffff"/>
  </g>
  <g id="text_1">
   <!-- $u_i^{(t)} = \beta u_i^{(t-1)} + (1-\beta)h_i^{(t)}$ -->
   <g style="fill: #35424e" transform="translate(0 11) scale(0.1 -0.1)">
    <defs>
     <path id="Cmmi10-75" d="M 678 697 
Q 678 906 734 1126 
Q 791 1347 892 1617 
Q 994 1888 1069 2088 
Q 1153 2322 1153 2472 
Q 1153 2663 1013 2663 
Q 759 2663 595 2402 
Q 431 2141 353 1819 
Q 341 1778 300 1778 
L 225 1778 
Q 172 1778 172 1838 
L 172 1856 
Q 275 2238 487 2533 
Q 700 2828 1025 2828 
Q 1253 2828 1411 2678 
Q 1569 2528 1569 2297 
Q 1569 2178 1516 2047 
Q 1488 1969 1388 1706 
Q 1288 1444 1234 1272 
Q 1181 1100 1147 934 
Q 1113 769 1113 603 
Q 1113 391 1203 244 
Q 1294 97 1497 97 
Q 1906 97 2216 603 
Q 2222 628 2226 651 
Q 2231 675 2234 697 
L 2694 2553 
Q 2716 2638 2794 2698 
Q 2872 2759 2963 2759 
Q 3041 2759 3098 2709 
Q 3156 2659 3156 2578 
Q 3156 2541 3150 2528 
L 2688 684 
Q 2644 494 2644 372 
Q 2644 97 2828 97 
Q 3034 97 3136 351 
Q 3238 606 3309 941 
Q 3322 978 3359 978 
L 3438 978 
Q 3463 978 3478 956 
Q 3494 934 3494 916 
Q 3425 641 3361 444 
Q 3297 247 3159 87 
Q 3022 -72 2816 -72 
Q 2613 -72 2452 39 
Q 2291 150 2234 341 
Q 2088 153 1894 40 
Q 1700 -72 1484 -72 
Q 1116 -72 897 129 
Q 678 331 678 697 
z
" transform="scale(0.015625)"/>
     <path id="Cmr10-28" d="M 1984 -1588 
Q 1628 -1306 1370 -942 
Q 1113 -578 948 -165 
Q 784 247 703 697 
Q 622 1147 622 1600 
Q 622 2059 703 2509 
Q 784 2959 951 3375 
Q 1119 3791 1378 4153 
Q 1638 4516 1984 4788 
Q 1984 4800 2016 4800 
L 2075 4800 
Q 2094 4800 2109 4783 
Q 2125 4766 2125 4744 
Q 2125 4716 2113 4703 
Q 1800 4397 1592 4047 
Q 1384 3697 1257 3301 
Q 1131 2906 1075 2482 
Q 1019 2059 1019 1600 
Q 1019 -434 2106 -1491 
Q 2125 -1509 2125 -1544 
Q 2125 -1559 2108 -1579 
Q 2091 -1600 2075 -1600 
L 2016 -1600 
Q 1984 -1600 1984 -1588 
z
" transform="scale(0.015625)"/>
     <path id="Cmmi10-74" d="M 397 519 
Q 397 613 416 697 
L 878 2534 
L 206 2534 
Q 141 2534 141 2619 
Q 166 2759 225 2759 
L 934 2759 
L 1191 3803 
Q 1216 3888 1291 3947 
Q 1366 4006 1459 4006 
Q 1541 4006 1595 3957 
Q 1650 3909 1650 3828 
Q 1650 3809 1648 3798 
Q 1647 3788 1644 3775 
L 1388 2759 
L 2047 2759 
Q 2113 2759 2113 2675 
Q 2109 2659 2100 2621 
Q 2091 2584 2075 2559 
Q 2059 2534 2028 2534 
L 1331 2534 
L 872 684 
Q 825 503 825 372 
Q 825 97 1013 97 
Q 1294 97 1511 361 
Q 1728 625 1844 941 
Q 1869 978 1894 978 
L 1972 978 
Q 1997 978 2012 961 
Q 2028 944 2028 922 
Q 2028 909 2022 903 
Q 1881 516 1612 222 
Q 1344 -72 997 -72 
Q 744 -72 570 93 
Q 397 259 397 519 
z
" transform="scale(0.015625)"/>
     <path id="Cmr10-29" d="M 416 -1600 
Q 359 -1600 359 -1544 
Q 359 -1516 372 -1503 
Q 1466 -434 1466 1600 
Q 1466 3634 384 4691 
Q 359 4706 359 4744 
Q 359 4766 376 4783 
Q 394 4800 416 4800 
L 475 4800 
Q 494 4800 506 4788 
Q 966 4425 1272 3906 
Q 1578 3388 1720 2800 
Q 1863 2213 1863 1600 
Q 1863 1147 1786 708 
Q 1709 269 1542 -157 
Q 1375 -584 1119 -945 
Q 863 -1306 506 -1588 
Q 494 -1600 475 -1600 
L 416 -1600 
z
" transform="scale(0.015625)"/>
     <path id="Cmmi10-69" d="M 500 459 
Q 500 578 550 709 
L 1069 2088 
Q 1153 2322 1153 2472 
Q 1153 2663 1013 2663 
Q 759 2663 595 2402 
Q 431 2141 353 1819 
Q 341 1778 300 1778 
L 225 1778 
Q 172 1778 172 1838 
L 172 1856 
Q 275 2238 487 2533 
Q 700 2828 1025 2828 
Q 1253 2828 1411 2678 
Q 1569 2528 1569 2297 
Q 1569 2178 1516 2047 
L 997 672 
Q 909 459 909 288 
Q 909 97 1056 97 
Q 1306 97 1473 364 
Q 1641 631 1709 941 
Q 1722 978 1759 978 
L 1838 978 
Q 1863 978 1878 961 
Q 1894 944 1894 922 
Q 1894 916 1888 903 
Q 1800 541 1583 234 
Q 1366 -72 1044 -72 
Q 819 -72 659 83 
Q 500 238 500 459 
z
M 1222 3878 
Q 1222 4013 1334 4122 
Q 1447 4231 1581 4231 
Q 1691 4231 1761 4164 
Q 1831 4097 1831 3994 
Q 1831 3850 1717 3742 
Q 1603 3634 1466 3634 
Q 1363 3634 1292 3704 
Q 1222 3775 1222 3878 
z
" transform="scale(0.015625)"/>
     <path id="Cmr10-3d" d="M 481 850 
Q 428 850 393 890 
Q 359 931 359 978 
Q 359 1031 393 1068 
Q 428 1106 481 1106 
L 4500 1106 
Q 4547 1106 4581 1068 
Q 4616 1031 4616 978 
Q 4616 931 4581 890 
Q 4547 850 4500 850 
L 481 850 
z
M 481 2094 
Q 428 2094 393 2131 
Q 359 2169 359 2222 
Q 359 2269 393 2309 
Q 428 2350 481 2350 
L 4500 2350 
Q 4547 2350 4581 2309 
Q 4616 2269 4616 2222 
Q 4616 2169 4581 2131 
Q 4547 2094 4500 2094 
L 481 2094 
z
" transform="scale(0.015625)"/>
     <path id="Cmmi10-af" d="M 172 -1241 
Q 153 -1241 137 -1219 
Q 122 -1197 122 -1178 
L 1106 2778 
Q 1191 3097 1353 3397 
Q 1516 3697 1761 3955 
Q 2006 4213 2300 4363 
Q 2594 4513 2925 4513 
Q 3163 4513 3355 4408 
Q 3547 4303 3658 4114 
Q 3769 3925 3769 3688 
Q 3769 3459 3681 3251 
Q 3594 3044 3437 2864 
Q 3281 2684 3103 2572 
Q 3206 2506 3287 2404 
Q 3369 2303 3419 2192 
Q 3469 2081 3497 1945 
Q 3525 1809 3525 1691 
Q 3525 1363 3384 1044 
Q 3244 725 3001 465 
Q 2759 206 2446 54 
Q 2134 -97 1806 -97 
Q 1447 -97 1159 100 
Q 872 297 763 634 
L 300 -1203 
Q 300 -1241 250 -1241 
L 172 -1241 
z
M 1819 78 
Q 2106 78 2339 267 
Q 2572 456 2723 742 
Q 2875 1028 2954 1348 
Q 3034 1669 3034 1931 
Q 3034 2256 2847 2444 
Q 2628 2363 2419 2363 
Q 1913 2363 1913 2534 
Q 1913 2759 2491 2759 
Q 2697 2759 2869 2694 
Q 3006 2800 3118 3006 
Q 3231 3213 3289 3438 
Q 3347 3663 3347 3859 
Q 3347 4069 3236 4208 
Q 3125 4347 2913 4347 
Q 2522 4347 2186 4106 
Q 1850 3866 1619 3498 
Q 1388 3131 1288 2741 
L 934 1325 
Q 900 1178 891 997 
Q 891 597 1153 337 
Q 1416 78 1819 78 
z
M 2106 2553 
Q 2203 2528 2425 2528 
Q 2534 2528 2644 2566 
Q 2638 2572 2619 2572 
Q 2550 2591 2472 2591 
Q 2181 2591 2106 2553 
z
" transform="scale(0.015625)"/>
     <path id="Cmsy10-a1" d="M 653 1472 
Q 600 1472 565 1512 
Q 531 1553 531 1600 
Q 531 1647 565 1687 
Q 600 1728 653 1728 
L 4325 1728 
Q 4375 1728 4408 1687 
Q 4441 1647 4441 1600 
Q 4441 1553 4408 1512 
Q 4375 1472 4325 1472 
L 653 1472 
z
" transform="scale(0.015625)"/>
     <path id="Cmr10-31" d="M 594 0 
L 594 225 
Q 1394 225 1394 428 
L 1394 3788 
Q 1063 3628 556 3628 
L 556 3853 
Q 1341 3853 1741 4263 
L 1831 4263 
Q 1853 4263 1873 4245 
Q 1894 4228 1894 4206 
L 1894 428 
Q 1894 225 2694 225 
L 2694 0 
L 594 0 
z
" transform="scale(0.015625)"/>
     <path id="Cmr10-2b" d="M 481 1472 
Q 428 1472 393 1512 
Q 359 1553 359 1600 
Q 359 1647 393 1687 
Q 428 1728 481 1728 
L 2363 1728 
L 2363 3616 
Q 2363 3666 2400 3698 
Q 2438 3731 2491 3731 
Q 2538 3731 2578 3698 
Q 2619 3666 2619 3616 
L 2619 1728 
L 4500 1728 
Q 4547 1728 4581 1687 
Q 4616 1647 4616 1600 
Q 4616 1553 4581 1512 
Q 4547 1472 4500 1472 
L 2619 1472 
L 2619 -416 
Q 2619 -466 2578 -498 
Q 2538 -531 2491 -531 
Q 2438 -531 2400 -498 
Q 2363 -466 2363 -416 
L 2363 1472 
L 481 1472 
z
" transform="scale(0.015625)"/>
     <path id="Cmmi10-68" d="M 341 116 
Q 341 153 347 172 
L 1275 3872 
Q 1300 3981 1306 4044 
Q 1306 4147 891 4147 
Q 825 4147 825 4231 
Q 828 4247 839 4287 
Q 850 4328 867 4350 
Q 884 4372 916 4372 
L 1778 4441 
L 1797 4441 
Q 1797 4434 1819 4423 
Q 1841 4413 1844 4409 
Q 1856 4378 1856 4359 
L 1356 2363 
Q 1750 2828 2291 2828 
Q 2516 2828 2680 2750 
Q 2844 2672 2936 2514 
Q 3028 2356 3028 2138 
Q 3028 1875 2911 1503 
Q 2794 1131 2619 672 
Q 2528 463 2528 288 
Q 2528 97 2675 97 
Q 2925 97 3092 364 
Q 3259 631 3328 941 
Q 3341 978 3378 978 
L 3456 978 
Q 3481 978 3497 961 
Q 3513 944 3513 922 
Q 3513 916 3506 903 
Q 3450 672 3339 448 
Q 3228 225 3059 76 
Q 2891 -72 2663 -72 
Q 2438 -72 2278 83 
Q 2119 238 2119 459 
Q 2119 578 2169 709 
Q 2350 1191 2470 1569 
Q 2591 1947 2591 2234 
Q 2591 2419 2519 2541 
Q 2447 2663 2278 2663 
Q 1934 2663 1678 2452 
Q 1422 2241 1234 1894 
L 800 147 
Q 775 50 703 -11 
Q 631 -72 538 -72 
Q 456 -72 398 -17 
Q 341 38 341 116 
z
" transform="scale(0.015625)"/>
    </defs>
    <use xlink:href="#Cmmi10-75" transform="translate(0 0.732812)"/>
    <use xlink:href="#Cmr10-28" transform="translate(63.481016 51.5) scale(0.7)"/>
    <use xlink:href="#Cmmi10-74" transform="translate(90.653867 51.5) scale(0.7)"/>
    <use xlink:href="#Cmr10-29" transform="translate(115.912656 51.5) scale(0.7)"/>
    <use xlink:href="#Cmmi10-69" transform="translate(57.177734 -24.776563) scale(0.7)"/>
    <use xlink:href="#Cmr10-3d" transform="translate(167.021445 0.732812)"/>
    <use xlink:href="#Cmmi10-af" transform="translate(262.265586 0.732812)"/>
    <use xlink:href="#Cmmi10-75" transform="translate(318.759727 0.732812)"/>
    <use xlink:href="#Cmr10-28" transform="translate(382.240742 51.5) scale(0.7)"/>
    <use xlink:href="#Cmmi10-74" transform="translate(409.413594 51.5) scale(0.7)"/>
    <use xlink:href="#Cmsy10-a1" transform="translate(446.963398 51.5) scale(0.7)"/>
    <use xlink:href="#Cmr10-31" transform="translate(513.634297 51.5) scale(0.7)"/>
    <use xlink:href="#Cmr10-29" transform="translate(548.634297 51.5) scale(0.7)"/>
    <use xlink:href="#Cmmi10-69" transform="translate(375.937461 -24.776563) scale(0.7)"/>
    <use xlink:href="#Cmr10-2b" transform="translate(599.743086 0.732812)"/>
    <use xlink:href="#Cmr10-28" transform="translate(694.987227 0.732812)"/>
    <use xlink:href="#Cmr10-31" transform="translate(733.805586 0.732812)"/>
    <use xlink:href="#Cmsy10-a1" transform="translate(801.36418 0.732812)"/>
    <use xlink:href="#Cmmi10-af" transform="translate(896.60832 0.732812)"/>
    <use xlink:href="#Cmr10-29" transform="translate(953.102461 0.732812)"/>
    <use xlink:href="#Cmmi10-68" transform="translate(991.92082 0.732812)"/>
    <use xlink:href="#Cmr10-28" transform="translate(1061.133945 51.5) scale(0.7)"/>
    <use xlink:href="#Cmmi10-74" transform="translate(1088.306797 51.5) scale(0.7)"/>
    <use xlink:href="#Cmr10-29" transform="translate(1113.565586 51.5) scale(0.7)"/>
    <use xlink:href="#Cmmi10-69" transform="translate(1049.538008 -24.776563) scale(0.7)"/>
   </g>
  </g>
 </g>
</svg>
